<svg width="21" height="21" viewBox="0 0 21 21" fill="none" xmlns="http://www.w3.org/2000/svg">
<g clip-path="url(#clip0_51_226)">
<path d="M15.5162 2.12871V1.34941C15.5162 0.611133 14.9174 0.0123048 14.1832 0.0123048C13.4449 0.0123048 12.8461 0.611133 12.8461 1.34531V2.12051H8.15391V1.34941C8.15391 0.611133 7.55508 0.0123048 6.8168 0.0123048C6.07852 0.0123048 5.48379 0.615235 5.48379 1.34941V2.12461C2.44453 2.21484 0 4.7127 0 7.77246V15.3398C0 18.4529 2.53477 20.9877 5.64785 20.9877H15.3562C18.4693 20.9877 21.0041 18.4529 21.0041 15.3398V7.77246C21 4.7127 18.5555 2.21484 15.5162 2.12871ZM15.5162 11.1768L10.5328 16.1602C10.0119 16.6811 9.16699 16.6811 8.64609 16.1602L6.43945 13.9535C5.89395 13.4572 5.85703 12.6123 6.35332 12.0668C6.84961 11.5213 7.69453 11.4844 8.24004 11.9807C8.26875 12.0094 8.29746 12.0381 8.32617 12.0668L9.58945 13.3301L13.6295 9.28594C14.175 8.78965 15.0199 8.82656 15.5162 9.37207C15.9838 9.88066 15.9838 10.66 15.5162 11.1768Z" fill="url(#paint0_linear_51_226)"/>
</g>
<defs>
<linearGradient id="paint0_linear_51_226" x1="10.5" y1="0.180469" x2="10.5" y2="20.6645" gradientUnits="userSpaceOnUse">
<stop stop-color="#FFA41C"/>
<stop offset="1" stop-color="#FF7B00"/>
</linearGradient>
<clipPath id="clip0_51_226">
<rect width="21" height="21" fill="white"/>
</clipPath>
</defs>
</svg>
