<svg width="19" height="19" viewBox="0 0 19 19" fill="none" xmlns="http://www.w3.org/2000/svg">
<path d="M10.773 7.11668L11.8833 9.21262L12.9924 7.11668L11.8833 5.02075L10.773 7.11668Z" fill="#FF8104"/>
<path d="M12.2158 0C8.47519 0 5.43163 3.04356 5.43163 6.78419C5.43163 7.51212 5.54325 8.21631 5.76412 8.88369L0.173375 14.4732C0.0617499 14.5849 0 14.7357 0 14.8936V18.4062C0 18.734 0.266 19 0.59375 19H3.70381C4.03156 19 4.29756 18.734 4.29756 18.4062V17.4373H5.25112C5.57888 17.4373 5.84487 17.1712 5.84487 16.8435V15.8899H6.79844C6.95519 15.8899 7.10719 15.827 7.21881 15.7166L9.80756 13.1278C10.5676 13.4211 11.3763 13.5696 12.2158 13.5696C15.9564 13.5696 19 10.526 19 6.78537C19 3.04475 15.9564 0 12.2158 0ZM14.1882 7.39456L12.407 10.7587C12.3037 10.9535 12.1018 11.0746 11.8821 11.0746C11.6624 11.0746 11.4606 10.9535 11.3573 10.7587L9.576 7.39456C9.48456 7.22119 9.48456 7.01219 9.576 6.84L11.3573 3.47581C11.5627 3.08631 12.2004 3.08631 12.4058 3.47581L14.1871 6.84C14.2809 7.01219 14.2809 7.22119 14.1882 7.39456Z" fill="#FF9E18"/>
</svg>
