<svg width="19" height="19" viewBox="0 0 19 19" fill="none" xmlns="http://www.w3.org/2000/svg">
<g clip-path="url(#clip0_51_211)">
<path d="M17.4166 9.69792V17.6146C17.4166 18.3746 16.7912 19 16.0312 19H10.0937V10.2917H8.90623V19H2.96873C2.20873 19 1.58331 18.3746 1.58331 17.6146V9.69792C1.58331 9.37333 1.85248 9.10417 2.17706 9.10417H16.8229C17.1475 9.10417 17.4166 9.37333 17.4166 9.69792Z" fill="#F26E32"/>
<path d="M19 6.92708V8.90625C19 9.66625 18.3746 10.2917 17.6146 10.2917H1.38542C0.625417 10.2917 0 9.66625 0 8.90625V6.92708C0 6.16708 0.625417 5.54167 1.38542 5.54167H17.6146C18.3746 5.54167 19 6.16708 19 6.92708Z" fill="#FF9768"/>
<path d="M9.49997 6.36817C9.32739 6.36817 9.16272 6.29296 9.05109 6.16233C8.93789 6.03171 8.88801 5.85833 8.91255 5.68733C9.20547 3.70817 10.7516 -0.0348334 14.5104 -0.0348334C16.6558 -0.0348334 17.4166 1.12417 17.4166 2.11692C17.4166 3.88154 14.9601 6.36817 9.49997 6.36817ZM14.5104 1.15267C11.6747 1.15267 10.598 3.84829 10.241 5.16325C12.4782 5.05875 13.889 4.49271 14.7012 4.01058C15.8278 3.34162 16.2291 2.5935 16.2291 2.11612C16.2291 1.40521 15.3417 1.15267 14.5104 1.15267Z" fill="#FFC107"/>
<path d="M9.50077 6.36817C4.03986 6.36817 1.58411 3.88154 1.58411 2.11692C1.58411 1.12417 2.34569 -0.0348334 4.49111 -0.0348334C8.24915 -0.0348334 9.79527 3.70817 10.0882 5.68733C10.1127 5.85833 10.0629 6.03171 9.94965 6.16233C9.83802 6.29296 9.67336 6.36817 9.50077 6.36817ZM4.49111 1.15267C3.65986 1.15267 2.77161 1.406 2.77161 2.11692C2.77161 3.12787 4.5394 4.96929 8.75977 5.16404C8.40273 3.84829 7.32606 1.15267 4.49111 1.15267Z" fill="#FFC107"/>
<path d="M10.0938 10.2917V19H8.90625V10.2917H10.0938Z" fill="#FF8F00"/>
<path d="M10.0938 6.00875V10.2917H8.90625V6.00875C8.90625 5.82746 8.96958 5.66121 9.0725 5.54167C9.18333 5.42292 9.33375 5.34375 9.5 5.34375C9.66625 5.34375 9.81667 5.42292 9.9275 5.54167C10.0304 5.66042 10.0938 5.82667 10.0938 6.00875Z" fill="#FFC107"/>
<path d="M8.90623 10.2917H1.58331V17.6146C1.58331 18.3746 2.20873 19 2.96873 19H8.90623V10.2917Z" fill="#FE5408"/>
<path d="M4.72308 5.54167H1.38542C0.625417 5.54167 0 6.16708 0 6.92708V8.90625C0 9.66625 0.625417 10.2917 1.38542 10.2917H1.58333H8.90625V6.35787C7.20258 6.29929 5.814 5.99054 4.72308 5.54167Z" fill="#FF9768"/>
<path d="M8.75898 5.16325C4.5394 4.96929 2.77081 3.12788 2.77081 2.11612C2.77081 1.40521 3.65906 1.15188 4.49031 1.15188C7.32607 1.15267 8.40273 3.84829 8.75898 5.16325ZM4.49111 -0.0348334C2.34569 -0.0348334 1.58411 1.12417 1.58411 2.11692C1.58411 3.24267 2.58319 4.66133 4.72306 5.54167C5.81477 5.99054 7.20257 6.29929 8.90623 6.35787V6.00875C8.90623 5.82746 8.96956 5.66121 9.07248 5.54167C9.18331 5.42292 9.33373 5.34375 9.49998 5.34375V3.66938C8.72098 1.862 7.16615 -0.0348334 4.49111 -0.0348334Z" fill="#DEA806"/>
<path d="M9.5 10.2917H8.90625V19H9.5V10.2917Z" fill="#DE7C00"/>
<path d="M9.5 5.34375C9.33375 5.34375 9.18333 5.42292 9.0725 5.54167C8.96958 5.66042 8.90625 5.82667 8.90625 6.00875V6.35788V10.2917H9.5V5.34375Z" fill="#DEA806"/>
</g>
<defs>
<clipPath id="clip0_51_211">
<rect width="19" height="19" fill="white"/>
</clipPath>
</defs>
</svg>
