<svg width="22" height="22" viewBox="0 0 22 22" fill="none" xmlns="http://www.w3.org/2000/svg">
<path fill-rule="evenodd" clip-rule="evenodd" d="M20.7352 8.59998L18.8822 8.29727L18.8103 8.10391C18.7375 7.90809 18.6575 7.71519 18.5702 7.52521L18.4838 7.33752L19.5802 5.81278C19.7894 5.52245 19.8885 5.16715 19.8596 4.81046C19.8308 4.45378 19.676 4.11899 19.4229 3.86604L18.1334 2.5774C17.8806 2.32423 17.5459 2.16929 17.1892 2.14033C16.8326 2.11137 16.4773 2.21026 16.1869 2.41932L14.6621 3.51528L14.4745 3.42891C14.2847 3.34163 14.0918 3.26169 13.8957 3.18911L13.7024 3.11726L13.3991 1.26505C13.3428 0.911299 13.1619 0.589335 12.889 0.357332C12.616 0.12533 12.2691 -0.00140994 11.9109 1.18531e-05H10.0883C9.73014 -0.0014109 9.3833 0.125291 9.11039 0.357232C8.83749 0.589173 8.65653 0.91106 8.6002 1.26475L8.29718 3.1167L8.10383 3.1885C7.90795 3.26121 7.71499 3.34133 7.52495 3.42887L7.33726 3.5152L5.81316 2.41915C5.52275 2.20999 5.16736 2.11104 4.81064 2.14003C4.45392 2.16902 4.11917 2.32405 3.86634 2.57736L2.57728 3.86616C2.32405 4.11905 2.16909 4.45379 2.14011 4.81049C2.11114 5.16719 2.21006 5.52256 2.41915 5.81299L3.51533 7.33761L3.42892 7.52542C3.34132 7.7152 3.26121 7.90823 3.18859 8.10451L3.11671 8.29787L1.26475 8.60011C0.911007 8.65641 0.589065 8.83739 0.357112 9.11034C0.125158 9.3833 -0.00150465 9.73022 1.34901e-05 10.0884V11.9115C-0.00147005 12.2697 0.125181 12.6166 0.357091 12.8895C0.589 13.1625 0.910878 13.3435 1.26458 13.3999L3.11739 13.7022L3.18919 13.8955C3.26187 14.0913 3.34186 14.284 3.42917 14.4738L3.51571 14.6616L2.41915 16.1869C2.21 16.4773 2.11103 16.8327 2.13997 17.1894C2.16891 17.5461 2.32387 17.8809 2.5771 18.1338L3.86617 19.4226C4.11909 19.6757 4.45382 19.8306 4.81049 19.8596C5.16716 19.8885 5.5225 19.7897 5.81295 19.5806L7.33679 18.4844L7.52435 18.5704C7.71459 18.6575 7.90782 18.7377 8.10404 18.811L8.2971 18.8829L8.60003 20.7349C8.65636 21.0886 8.83733 21.4106 9.11026 21.6426C9.38318 21.8746 9.73008 22.0014 10.0883 22H11.9109C12.2691 22.0014 12.616 21.8746 12.8889 21.6425C13.1619 21.4105 13.3428 21.0885 13.3991 20.7348L13.7024 18.8822L13.8957 18.8104C14.0914 18.7377 14.2842 18.6578 14.4742 18.5706L14.6618 18.4843L16.1868 19.5806C16.4772 19.7896 16.8325 19.8885 17.1891 19.8595C17.5457 19.8306 17.8804 19.6756 18.1333 19.4225L19.4227 18.1337C19.6759 17.8807 19.8307 17.5459 19.8595 17.1892C19.8883 16.8325 19.7893 16.4772 19.58 16.1869L18.4842 14.6622L18.5705 14.4746C18.6579 14.2846 18.7381 14.0915 18.8111 13.8954L18.883 13.702L20.7353 13.3998C21.0889 13.3433 21.4108 13.1623 21.6427 12.8894C21.8746 12.6164 22.0013 12.2696 22 11.9115V10.0884C22.0014 9.73021 21.8747 9.38329 21.6427 9.11033C21.4108 8.83737 21.0888 8.65635 20.7351 8.59998H20.7352ZM11 14.4494C10.3177 14.4494 9.65066 14.2471 9.08332 13.8681C8.51597 13.489 8.07378 12.9502 7.81266 12.3198C7.55154 11.6894 7.48322 10.9958 7.61634 10.3266C7.74946 9.65734 8.07805 9.04263 8.56054 8.56017C9.04303 8.07771 9.65776 7.74916 10.327 7.61608C10.9962 7.483 11.6899 7.55136 12.3202 7.81252C12.9506 8.07368 13.4894 8.51591 13.8684 9.08328C14.2474 9.65065 14.4497 10.3177 14.4496 11C14.4486 11.9146 14.0848 12.7913 13.4381 13.438C12.7914 14.0847 11.9146 14.4484 11 14.4494ZM11 6.39706C11.9104 6.39712 12.8003 6.66714 13.5572 7.17296C14.3141 7.67878 14.904 8.39769 15.2524 9.23878C15.6007 10.0799 15.6918 11.0054 15.5142 11.8982C15.3366 12.7911 14.8981 13.6113 14.2544 14.255C13.6106 14.8987 12.7904 15.337 11.8976 15.5146C11.0047 15.6922 10.0792 15.601 9.23812 15.2526C8.39705 14.9042 7.67819 14.3142 7.17242 13.5573C6.66666 12.8003 6.39671 11.9104 6.39672 11C6.39809 9.77956 6.88352 8.60951 7.74651 7.74654C8.6095 6.88358 9.77957 6.39818 11 6.39685V6.39706Z" fill="url(#paint0_linear_51_238)"/>
<defs>
<linearGradient id="paint0_linear_51_238" x1="11" y1="0" x2="11" y2="22" gradientUnits="userSpaceOnUse">
<stop stop-color="#FF9E18"/>
<stop offset="1" stop-color="#FF7B00"/>
</linearGradient>
</defs>
</svg>
