<svg width="21" height="17" viewBox="0 0 21 17" fill="none" xmlns="http://www.w3.org/2000/svg">
<path d="M20.1107 5.41495C19.3452 6.21476 18.2726 6.49761 17.2889 6.26461L19.1994 4.26845C19.5044 3.94976 19.6727 3.52577 19.6727 3.0749C19.6727 2.62402 19.5044 2.20003 19.1994 1.88134C18.8944 1.56265 18.4886 1.38678 18.0571 1.38678C17.6255 1.38678 17.2198 1.56265 16.9147 1.88134L15.0042 3.87751C14.7807 2.84974 15.0514 1.729 15.8169 0.92919C17.0027 -0.30973 18.9249 -0.30973 20.1107 0.92919C21.2964 2.16811 21.2964 4.17603 20.1107 5.41495ZM18.8713 3.92567C19.3211 3.45576 19.3211 2.69403 18.8713 2.22412C18.4216 1.7542 17.6926 1.7542 17.2428 2.22412L14.1927 5.41103C14.6371 4.94672 14.6424 4.19676 14.2082 3.72572C13.7606 3.23956 13.0021 3.25132 12.5454 3.72852L11.7643 4.54457C12.2087 4.08026 12.2141 3.3303 11.7799 2.85926C11.3323 2.3731 10.5738 2.38486 10.1171 2.86206L9.24704 3.77109C9.69143 3.30677 9.69679 2.55681 9.26259 2.08578C8.81498 1.59962 8.05647 1.61138 7.59975 2.08858L6.95167 2.76573L5.77503 3.99512C5.55632 4.22364 5.37996 4.49192 5.25506 4.78709L4.19475 7.28509C4.06931 7.58026 3.89295 7.8491 3.67424 8.07706C3.54773 8.20924 3.54773 8.42432 3.67424 8.5565L8.13098 13.2131C8.24409 13.3313 8.42099 13.343 8.55178 13.2473C8.92916 12.9706 9.37409 12.8053 9.83992 12.7751L14.8327 12.4514C15.4615 12.4514 15.9724 11.9249 15.9842 11.2713C15.9965 10.5969 15.4524 10.0447 14.807 10.0447H13.0144L13.4663 9.5725L18.8713 3.92567ZM0.367866 11.3558L5.40194 16.6156C5.89243 17.1281 6.68793 17.1281 7.17895 16.6156L8.06719 15.6876C8.55768 15.1751 8.55768 14.3439 8.06719 13.8309L3.03312 8.57106C2.54263 8.05858 1.74713 8.05858 1.25611 8.57106L0.367866 9.49913C-0.122622 10.0116 -0.122622 10.8428 0.367866 11.3558Z" fill="white"/>
</svg>
