<svg width="12" height="17" viewBox="0 0 12 17" fill="none" xmlns="http://www.w3.org/2000/svg">
<path d="M5.14859 17C4.91653 16.9992 4.68741 16.9479 4.4771 16.8498C4.13356 16.6969 3.85766 16.4238 3.70116 16.0818C3.54466 15.7399 3.51833 15.3526 3.6271 14.9926L4.7328 11.3333H2.12756C1.79564 11.3337 1.46824 11.2564 1.1716 11.1075C0.874958 10.9585 0.617328 10.7422 0.419356 10.4758C0.221383 10.2094 0.0885739 9.90028 0.0315711 9.57329C-0.0254317 9.2463 -0.0050428 8.9105 0.0911041 8.59281L2.2331 1.50949C2.36367 1.07137 2.6328 0.687418 3.00012 0.415252C3.36743 0.143087 3.81311 -0.00260781 4.27026 3.53382e-05H6.88613C7.18346 0.000284064 7.4763 0.0725161 7.73964 0.210558C8.00298 0.348601 8.22898 0.548349 8.39833 0.792732C8.56768 1.03712 8.67534 1.31887 8.71211 1.61391C8.74889 1.90895 8.71368 2.20851 8.6095 2.48699L7.41738 5.66669H9.22859C9.61466 5.66666 9.99346 5.77181 10.3243 5.97085C10.6551 6.16989 10.9254 6.4553 11.1063 6.79641C11.2871 7.13753 11.3716 7.52146 11.3506 7.90697C11.3297 8.29248 11.2041 8.665 10.9874 8.98452L6.45405 16.2803C6.31391 16.4998 6.121 16.6807 5.89295 16.8064C5.66491 16.9321 5.40899 16.9987 5.14859 17Z" fill="url(#paint0_radial_51_205)"/>
<defs>
<radialGradient id="paint0_radial_51_205" cx="0" cy="0" r="1" gradientUnits="userSpaceOnUse" gradientTransform="translate(5.67687 8.5) rotate(90) scale(8.5 5.67687)">
<stop stop-color="#FFA41C"/>
<stop offset="1" stop-color="#FF7B00"/>
</radialGradient>
</defs>
</svg>
